<svg width="45" height="44" viewBox="0 0 45 44" fill="none" xmlns="http://www.w3.org/2000/svg">
<path d="M7.34908 8.49242C8.08356 8.49242 8.71464 9.04079 8.81695 9.76855C8.85912 10.0688 9.14136 10.2815 9.4381 10.2364C9.73914 10.1939 9.94861 9.91571 9.90618 9.61494C9.72786 8.34794 8.62844 7.39246 7.34908 7.39246C6.06946 7.39246 4.97031 8.34794 4.79226 9.61548C4.7501 9.91625 4.95957 10.1939 5.26034 10.2364C5.28639 10.2401 5.31217 10.2417 5.33768 10.2417C5.6073 10.2417 5.84281 10.043 5.88148 9.76801C5.9838 9.04079 6.61461 8.49242 7.34908 8.49242Z" fill="#103EB4"/>
<path d="M19.8313 9.61494C19.653 8.34794 18.5536 7.39246 17.2742 7.39246C15.9949 7.39246 14.8954 8.34794 14.7171 9.61494C14.6747 9.91571 14.8842 10.1939 15.1852 10.2364C15.4825 10.2804 15.7642 10.0693 15.8064 9.76855C15.9087 9.04079 16.5397 8.49242 17.2742 8.49242C18.0087 8.49242 18.6398 9.04079 18.7421 9.76855C18.7808 10.043 19.0163 10.2417 19.2859 10.2417C19.3114 10.2417 19.3375 10.2401 19.3632 10.2364C19.6643 10.1939 19.8737 9.91571 19.8313 9.61494Z" fill="#103EB4"/>
<path d="M18.002 13.2392H6.62127C6.31755 13.2392 6.07129 13.4852 6.07129 13.7892C6.07129 17.2303 8.87088 20.0296 12.3118 20.0296C15.7526 20.0296 18.5519 17.2303 18.5519 13.7892C18.5519 13.4852 18.3057 13.2392 18.002 13.2392ZM12.3118 18.9297C9.66309 18.9297 7.47578 16.9161 7.20052 14.3392H17.4227C17.1475 16.9161 14.9604 18.9297 12.3118 18.9297Z" fill="#103EB4"/>
<path d="M22.8521 22.5668C22.6156 22.8052 22.3995 23.0552 22.1864 23.3067C21.8223 23.14 20.867 22.576 20.7062 21.9019C20.6329 21.5947 20.7352 21.2751 21.0188 20.9239C21.0977 20.8471 21.1753 20.7697 21.25 20.6919C25.913 15.8908 25.8706 8.40536 21.1533 3.65103C16.3834 -1.15647 8.5526 -1.22468 3.69676 3.49635C1.34242 5.78543 0.0297714 8.84524 0.000499913 12.1129C-0.0287716 15.379 1.22829 18.4613 3.5402 20.7907C6.7606 24.0363 11.4454 25.2319 15.8358 23.9525C16.3195 24.3473 17.4487 25.0842 19.1371 25.0842C19.7322 25.0842 20.3987 24.9892 21.1291 24.7584C18.2297 29.4079 18.7578 35.4917 22.7541 39.6066C22.8301 39.6856 22.9077 39.7629 22.9867 39.8397C23.2697 40.1899 23.372 40.5094 23.2998 40.8156C23.1365 41.5068 22.1509 42.0772 21.7863 42.2383C21.5886 42.3243 21.4597 42.5182 21.4562 42.7335C21.453 42.9489 21.5757 43.1466 21.7704 43.2389C22.948 43.7981 23.9846 44 24.8684 44C26.5564 44 27.6859 43.2631 28.1696 42.8684C32.5606 44.1477 37.2451 42.9516 40.4652 39.7065C42.7771 37.3771 44.0342 34.2948 44.0049 31.0287C43.9756 27.7611 42.663 24.7012 40.3087 22.4122C35.452 17.6906 27.6223 17.7599 22.8521 22.5668ZM16.3721 22.9589C16.2666 22.8467 16.121 22.786 15.972 22.786C15.9161 22.786 15.8597 22.7946 15.8049 22.8118C11.7239 24.1126 7.3232 23.0422 4.32113 20.0162C2.21761 17.8963 1.07388 15.0932 1.10019 12.1226C1.12705 9.15138 2.32127 6.36764 4.46373 4.2848C8.88936 -0.0167652 16.0257 0.0460745 20.3724 4.42552C24.6632 8.75017 24.7021 15.5589 20.4596 19.927C20.3845 20.0049 20.3079 20.0812 20.23 20.1569C20.2155 20.1709 20.2018 20.1859 20.1892 20.201C19.5353 20.9921 19.5275 21.7011 19.6363 22.157C19.7969 22.8311 20.2897 23.3558 20.7639 23.7216C17.9823 24.5766 16.4414 23.0304 16.3721 22.9589ZM39.6843 38.932C36.6819 41.9569 32.281 43.0279 28.2005 41.7276C28.0017 41.6642 27.781 41.7222 27.6355 41.872C27.5643 41.9456 26.0223 43.4925 23.2415 42.6374C23.7158 42.2716 24.2085 41.7469 24.3691 41.0729C24.4779 40.6169 24.4701 39.9079 23.8162 39.1168C23.8036 39.1017 23.7899 39.0867 23.7754 39.0727C23.6975 38.997 23.621 38.9207 23.5444 38.8418C19.3033 34.4747 19.3422 27.666 23.633 23.3413C27.9792 18.9619 35.1163 18.898 39.5417 23.2006C41.6841 25.2835 42.8784 28.0672 42.9052 31.0384C42.9315 34.009 41.7878 36.8121 39.6843 38.932Z" fill="#103EB4"/>
<path d="M36.6565 26.3082C35.3772 26.3082 34.2778 27.2637 34.0995 28.5307C34.057 28.8315 34.2665 29.1097 34.5675 29.1521C34.8651 29.1956 35.1465 28.9851 35.1887 28.6843C35.291 27.9566 35.9221 27.4082 36.6565 27.4082C37.391 27.4082 38.0218 27.9566 38.1241 28.6838C38.1628 28.9588 38.3983 29.1575 38.668 29.1575C38.6935 29.1575 38.7192 29.1559 38.7453 29.1521C39.0461 29.1097 39.2555 28.832 39.2134 28.5312C39.0353 27.2637 37.9362 26.3082 36.6565 26.3082Z" fill="#103EB4"/>
<path d="M26.7313 27.4082C27.4657 27.4082 28.0968 27.9566 28.1991 28.6843C28.2378 28.9588 28.4733 29.1575 28.7429 29.1575C28.7684 29.1575 28.7945 29.1559 28.8203 29.1521C29.1213 29.1097 29.3308 28.8315 29.2883 28.5307C29.11 27.2637 28.0106 26.3082 26.7313 26.3082C25.4519 26.3082 24.3525 27.2637 24.1742 28.5307C24.1317 28.8315 24.3412 29.1097 24.6422 29.1521C24.9384 29.1956 25.221 28.9851 25.2634 28.6843C25.3657 27.9566 25.9968 27.4082 26.7313 27.4082Z" fill="#103EB4"/>
<path d="M37.3843 32.155C37.0806 32.155 36.8343 32.401 36.8343 32.705C36.8343 35.5392 34.5283 37.8455 31.6938 37.8455C28.8596 37.8455 26.5536 35.5392 26.5536 32.705C26.5536 32.401 26.3073 32.155 26.0036 32.155C25.6999 32.155 25.4536 32.401 25.4536 32.705C25.4536 36.1462 28.2529 38.9455 31.6938 38.9455C35.1347 38.9455 37.9343 36.1462 37.9343 32.705C37.9343 32.401 37.688 32.155 37.3843 32.155Z" fill="#103EB4"/>
</svg>
