<?xml version="1.0" encoding="utf-8"?><svg xmlns="http://www.w3.org/2000/svg" xmlns:xlink="http://www.w3.org/1999/xlink"><symbol fill="none" viewBox="0 0 32 32" id="fb" xmlns="http://www.w3.org/2000/svg"><path d="M32 16c0-8.838-7.163-16-16-16C7.162 0 0 7.162 0 16c0 8.837 7.162 16 16 16 .094 0 .188 0 .281-.006v-12.45h-3.437v-4.007h3.437v-2.95c0-3.418 2.088-5.28 5.138-5.28 1.462 0 2.718.105 3.081.155v3.575h-2.1c-1.656 0-1.981.788-1.981 1.944v2.55h3.968l-.518 4.007h-3.45V31.38C27.106 29.462 32 23.306 32 16z" fill="#103EB4"/></symbol><symbol fill="none" viewBox="0 0 42 42" id="house" xmlns="http://www.w3.org/2000/svg"><path d="M41.475 40.95h-2.034v-3.01a3.022 3.022 0 002.493-2.97 3.022 3.022 0 00-3.018-3.02 3.022 3.022 0 00-3.02 3.02 3.021 3.021 0 002.495 2.97v3.01h-3.374V8.137a.525.525 0 00-.098-.306L29.457.22A.525.525 0 0029.03 0H12.97a.525.525 0 00-.427.219L7.081 7.83a.525.525 0 00-.098.306V40.95h-3.44v-3.01a3.022 3.022 0 002.494-2.97 3.022 3.022 0 00-3.018-3.02A3.022 3.022 0 000 34.97a3.022 3.022 0 002.494 2.97v3.01H.525a.525.525 0 100 1.05h40.95a.525.525 0 100-1.05zm-4.528-5.98c0-1.086.883-1.97 1.969-1.97 1.085 0 1.968.884 1.968 1.97a1.971 1.971 0 01-1.968 1.968 1.971 1.971 0 01-1.97-1.969zm-35.897 0c0-1.086.883-1.97 1.969-1.97 1.085 0 1.968.884 1.968 1.97a1.971 1.971 0 01-1.968 1.968A1.971 1.971 0 011.05 34.97zm32.917-16.306h-4.382v-5.33h4.382v5.33zm-5.432 0h-4.409v-5.33h4.41v5.33zm-5.459 0h-4.408v-5.33h4.408v5.33zm-5.458 0H13.21v-5.33h4.408v5.33zm-5.458 0H8.033v-5.33h4.127v5.33zm-4.127 1.05h4.127v5.254H8.033v-5.254zm5.177 0h4.408v5.254H13.21v-5.254zm5.458 0h4.408v5.254h-4.408v-5.254zm5.458 0h4.41v5.254h-4.41v-5.254zm5.46 0h4.381v5.254h-4.382v-5.254zM13.238 1.05H28.76l5.206 7.256v3.978H8.033V8.306l5.206-7.256zM8.033 26.018h25.934V40.95h-7.945V30.349a.525.525 0 00-.525-.525h-8.994a.525.525 0 00-.525.525v10.6H8.033v-14.93zm13.442 4.856h3.497V40.95h-3.497V30.874zm-1.05 10.076h-3.397V30.874h3.397V40.95z" fill="#103EB4"/></symbol><symbol fill="none" viewBox="0 0 32 32" id="in" xmlns="http://www.w3.org/2000/svg"><path d="M16 0C7.165 0 0 7.165 0 16s7.165 16 16 16 16-7.165 16-16S24.835 0 16 0zm-4.65 24.188H7.455V12.463h3.897v11.723zM9.403 10.863h-.025c-1.308 0-2.153-.9-2.153-2.025 0-1.15.871-2.025 2.204-2.025 1.333 0 2.153.875 2.179 2.025 0 1.125-.846 2.025-2.205 2.025zm16 13.325h-3.897v-6.272c0-1.576-.564-2.651-1.974-2.651-1.076 0-1.717.725-2 1.425-.102.25-.127.6-.127.95v6.547h-3.897s.051-10.623 0-11.723h3.897v1.66c.517-.799 1.444-1.935 3.511-1.935 2.564 0 4.486 1.675 4.486 5.276v6.723z" fill="#103EB4"/></symbol><symbol fill="none" viewBox="0 0 32 32" id="inst" xmlns="http://www.w3.org/2000/svg"><path d="M19.063 16a3.062 3.062 0 11-6.125 0 3.062 3.062 0 016.124 0z" fill="#103EB4"/><path d="M23.162 10.582a2.847 2.847 0 00-.687-1.057 2.845 2.845 0 00-1.056-.687c-.324-.126-.81-.275-1.706-.316-.97-.044-1.26-.054-3.713-.054-2.453 0-2.744.01-3.713.053-.895.041-1.382.191-1.706.317a2.84 2.84 0 00-1.056.687c-.305.297-.54.657-.687 1.056-.126.324-.276.81-.317 1.707-.044.968-.053 1.259-.053 3.712 0 2.453.01 2.744.053 3.713.041.896.19 1.382.317 1.706.147.399.382.76.687 1.056.296.305.657.54 1.056.687.324.126.81.276 1.706.317.97.044 1.26.053 3.713.053 2.453 0 2.744-.01 3.712-.053.896-.041 1.383-.19 1.707-.317a3.043 3.043 0 001.743-1.743c.126-.324.276-.81.317-1.706.044-.97.053-1.26.053-3.713 0-2.453-.01-2.744-.053-3.712-.041-.896-.19-1.383-.317-1.707zM16 20.718a4.718 4.718 0 110-9.436 4.718 4.718 0 010 9.436zm4.904-8.52a1.102 1.102 0 110-2.205 1.102 1.102 0 010 2.205z" fill="#103EB4"/><path d="M16 0C7.165 0 0 7.165 0 16s7.165 16 16 16 16-7.165 16-16S24.835 0 16 0zm9.132 19.788c-.044.978-.2 1.646-.427 2.23a4.698 4.698 0 01-2.687 2.687c-.584.227-1.252.382-2.23.427-.98.045-1.293.055-3.788.055s-2.808-.01-3.788-.055c-.978-.045-1.646-.2-2.23-.427a4.501 4.501 0 01-1.627-1.06 4.504 4.504 0 01-1.06-1.627c-.227-.584-.382-1.252-.427-2.23-.045-.98-.056-1.293-.056-3.788s.011-2.808.056-3.788c.044-.978.2-1.646.427-2.23a4.5 4.5 0 011.06-1.627 4.5 4.5 0 011.627-1.06c.584-.227 1.252-.382 2.23-.427.98-.045 1.293-.056 3.788-.056s2.808.011 3.788.056c.978.045 1.646.2 2.23.427.613.23 1.168.592 1.627 1.06.468.459.83 1.014 1.06 1.627.227.584.383 1.252.427 2.23.045.98.055 1.293.055 3.788s-.01 2.808-.055 3.788z" fill="#103EB4"/></symbol><symbol fill="none" viewBox="0 0 45 44" id="smile" xmlns="http://www.w3.org/2000/svg"><path d="M7.35 8.492c.734 0 1.365.549 1.467 1.277a.55.55 0 001.09-.154 2.594 2.594 0 00-2.558-2.223c-1.28 0-2.379.956-2.557 2.223a.55.55 0 101.09.153 1.489 1.489 0 011.467-1.276zm12.481 1.123a2.594 2.594 0 00-2.557-2.223c-1.28 0-2.379.956-2.557 2.223a.55.55 0 001.09.154 1.489 1.489 0 011.467-1.277c.735 0 1.366.549 1.468 1.277a.55.55 0 001.09-.154zm-1.829 3.625H6.622a.55.55 0 00-.55.55c0 3.44 2.799 6.24 6.24 6.24 3.44 0 6.24-2.8 6.24-6.24a.55.55 0 00-.55-.55zm-5.69 5.69A5.148 5.148 0 017.2 14.34h10.222a5.147 5.147 0 01-5.111 4.59z" fill="#103EB4"/><path d="M22.852 22.567a12.49 12.49 0 00-.666.74c-.364-.167-1.319-.731-1.48-1.405-.073-.307.03-.627.313-.978.079-.077.156-.154.231-.232 4.663-4.801 4.62-12.287-.097-17.041-4.77-4.807-12.6-4.876-17.456-.155A12.09 12.09 0 000 12.113a12.084 12.084 0 003.54 8.678c3.22 3.245 7.905 4.44 12.296 3.162.484.394 1.613 1.131 3.301 1.131a6.6 6.6 0 001.992-.326c-2.9 4.65-2.371 10.734 1.625 14.849.076.079.154.156.233.233.283.35.385.67.313.976-.163.69-1.15 1.261-1.514 1.422a.55.55 0 00-.016 1c1.178.56 2.215.762 3.098.762 1.688 0 2.818-.737 3.302-1.132 4.39 1.28 9.075.084 12.295-3.162a12.084 12.084 0 003.54-8.677 12.09 12.09 0 00-3.696-8.617c-4.857-4.721-12.687-4.652-17.457.155zm-6.48.392a.55.55 0 00-.567-.147c-4.081 1.3-8.482.23-11.484-2.796a10.994 10.994 0 01-3.22-7.893 10.998 10.998 0 013.363-7.838c4.425-4.302 11.562-4.239 15.908.14 4.291 4.325 4.33 11.134.088 15.502a9.953 9.953 0 01-.23.23.562.562 0 00-.04.044c-.655.791-.663 1.5-.554 1.956.16.674.654 1.199 1.128 1.565-2.782.855-4.323-.692-4.392-.763zm23.312 15.973c-3.002 3.025-7.403 4.096-11.483 2.796a.557.557 0 00-.566.144c-.07.074-1.613 1.62-4.394.765.475-.365.968-.89 1.128-1.564.109-.456.101-1.165-.553-1.956a.562.562 0 00-.04-.044 11.174 11.174 0 01-.232-.231c-4.24-4.367-4.202-11.176.089-15.5 4.346-4.38 11.483-4.444 15.909-.141a10.998 10.998 0 013.363 7.837 10.994 10.994 0 01-3.22 7.894z" fill="#103EB4"/><path d="M36.657 26.308c-1.28 0-2.38.956-2.557 2.223a.55.55 0 101.089.153 1.489 1.489 0 011.468-1.276c.734 0 1.365.549 1.467 1.276a.55.55 0 001.09-.153 2.593 2.593 0 00-2.557-2.223zm-9.926 1.1c.735 0 1.366.549 1.468 1.276a.55.55 0 001.09-.153 2.594 2.594 0 00-2.558-2.223c-1.28 0-2.379.956-2.557 2.223a.55.55 0 101.09.153 1.489 1.489 0 011.467-1.276zm10.653 4.747a.55.55 0 00-.55.55 5.146 5.146 0 01-5.14 5.14 5.146 5.146 0 01-5.14-5.14.55.55 0 10-1.1 0 6.247 6.247 0 006.24 6.24c3.44 0 6.24-2.799 6.24-6.24a.55.55 0 00-.55-.55z" fill="#103EB4"/></symbol><symbol fill="none" viewBox="0 0 41 41" id="star" xmlns="http://www.w3.org/2000/svg"><path d="M7.633 25.718C3.424 25.718 0 29.142 0 33.35s3.424 7.633 7.633 7.633 7.633-3.425 7.633-7.633c0-2.002-.78-3.82-2.045-5.183l2.127-2.042a7.595 7.595 0 0010.032.222l2.072 2.16a7.597 7.597 0 00-1.738 4.843c0 4.208 3.424 7.633 7.633 7.633 4.21 0 7.633-3.425 7.633-7.633 0-4.21-3.424-7.633-7.633-7.633a7.596 7.596 0 00-5.187 2.048l-2.045-2.13a7.594 7.594 0 00.222-10.032l2.165-2.078a7.598 7.598 0 004.845 1.74c4.21 0 7.633-3.424 7.633-7.633S37.556 0 33.347 0s-7.633 3.424-7.633 7.633c0 2.003.781 3.822 2.047 5.185l-2.137 2.051a7.594 7.594 0 00-10.03-.223l-2.074-2.16a7.598 7.598 0 001.746-4.853C15.266 3.424 11.842 0 7.633 0S0 3.424 0 7.633s3.424 7.633 7.633 7.633a7.596 7.596 0 005.177-2.04l2.048 2.133a7.594 7.594 0 00-.223 10.032l-2.154 2.068a7.598 7.598 0 00-4.848-1.741zM3.655 38.615a3.958 3.958 0 012.818-3.68.512.512 0 00.096-.941 2.418 2.418 0 011.153-4.54 2.42 2.42 0 012.417 2.416c0 .912-.507 1.737-1.324 2.153a.512.512 0 00.072.942 3.975 3.975 0 012.724 3.65 6.566 6.566 0 01-3.978 1.343 6.566 6.566 0 01-3.978-1.343zm8.882-.851a4.993 4.993 0 00-2.457-3.388 3.42 3.42 0 001.083-2.506 3.445 3.445 0 00-3.44-3.44 3.44 3.44 0 10-2.425 5.883 4.96 4.96 0 00-2.57 3.45 6.575 6.575 0 01-1.704-4.413 6.616 6.616 0 016.61-6.61 6.616 6.616 0 016.608 6.61 6.574 6.574 0 01-1.705 4.414zm16.832.85a3.958 3.958 0 012.818-3.68.512.512 0 00.096-.94 2.417 2.417 0 011.153-4.54 2.42 2.42 0 012.417 2.416c0 .912-.507 1.737-1.324 2.153a.512.512 0 00.072.942 3.975 3.975 0 012.724 3.65 6.567 6.567 0 01-3.978 1.343 6.566 6.566 0 01-3.978-1.343zm3.978-11.873a6.617 6.617 0 016.61 6.609 6.574 6.574 0 01-1.706 4.414 4.994 4.994 0 00-2.457-3.388 3.421 3.421 0 001.083-2.506 3.445 3.445 0 00-3.44-3.44 3.44 3.44 0 10-2.425 5.883 4.96 4.96 0 00-2.57 3.45 6.575 6.575 0 01-1.704-4.413 6.616 6.616 0 016.61-6.61zM29.37 12.898a3.958 3.958 0 012.818-3.68.512.512 0 00.096-.94 2.417 2.417 0 011.153-4.54 2.42 2.42 0 012.417 2.416c0 .912-.507 1.737-1.324 2.153a.512.512 0 00.072.942 3.975 3.975 0 012.724 3.65 6.567 6.567 0 01-3.978 1.343 6.566 6.566 0 01-3.978-1.344zm3.978-11.874a6.617 6.617 0 016.61 6.61 6.574 6.574 0 01-1.706 4.413 4.993 4.993 0 00-2.457-3.388 3.422 3.422 0 001.083-2.505 3.445 3.445 0 00-3.44-3.441 3.445 3.445 0 00-3.441 3.44c0 .931.374 1.805 1.016 2.442a4.961 4.961 0 00-2.57 3.451 6.575 6.575 0 01-1.704-4.413 6.616 6.616 0 016.61-6.609zM1.024 7.634a6.616 6.616 0 016.61-6.61 6.616 6.616 0 016.608 6.61 6.575 6.575 0 01-1.705 4.413A4.993 4.993 0 0010.08 8.66a3.421 3.421 0 001.083-2.505 3.445 3.445 0 00-3.44-3.441 3.44 3.44 0 10-2.425 5.883 4.961 4.961 0 00-2.57 3.45 6.574 6.574 0 01-1.704-4.413zm2.631 5.264a3.958 3.958 0 012.818-3.68.512.512 0 00.096-.94 2.418 2.418 0 011.153-4.54 2.42 2.42 0 012.417 2.416c0 .912-.507 1.737-1.324 2.153a.512.512 0 00.072.942 3.975 3.975 0 012.724 3.65 6.566 6.566 0 01-3.978 1.343 6.566 6.566 0 01-3.978-1.344zm16.831.99a6.616 6.616 0 016.61 6.61 6.616 6.616 0 01-6.61 6.608 6.616 6.616 0 01-6.608-6.609 6.616 6.616 0 016.608-6.608z" fill="#103EB4"/><path d="M17.04 20.722c.498.484.725 1.18.608 1.864l-.262 1.52a.512.512 0 00.742.541l1.384-.724a2.1 2.1 0 011.95 0l1.383.724a.51.51 0 00.539-.04.511.511 0 00.203-.5l-.262-1.52a2.105 2.105 0 01.608-1.865l1.11-1.079a.511.511 0 00-.283-.874l-1.544-.223a2.101 2.101 0 01-1.582-1.147l-.689-1.39c-.173-.349-.744-.349-.918 0l-.688 1.39a2.101 2.101 0 01-1.582 1.146l-1.544.224a.512.512 0 00-.284.874l1.111 1.079zm.864-1.163a3.125 3.125 0 002.353-1.706l.23-.463.23.463a3.125 3.125 0 002.352 1.706l.514.075-.364.353a3.125 3.125 0 00-.903 2.773l.085.5-.465-.244a3.125 3.125 0 00-2.9 0l-.465.243.086-.499a3.125 3.125 0 00-.903-2.773l-.364-.353.514-.075z" fill="#103EB4"/></symbol><symbol fill="none" viewBox="0 0 44 44" id="user" xmlns="http://www.w3.org/2000/svg"><path d="M25.502 3.485C25.502 1.563 23.93 0 22 0c-1.93 0-3.502 1.563-3.502 3.485S20.07 6.97 22 6.97c1.93 0 3.502-1.563 3.502-3.485zm-5.904 0A2.396 2.396 0 0122 1.1a2.396 2.396 0 012.402 2.385A2.396 2.396 0 0122 5.87a2.396 2.396 0 01-2.402-2.385zm15.487 1.93h-.01c-.93 0-1.803.36-2.459 1.017a3.453 3.453 0 00-1.017 2.47c.002.932.368 1.81 1.029 2.47a3.485 3.485 0 002.47 1.03h.01c.93 0 1.804-.361 2.46-1.018a3.453 3.453 0 001.018-2.47 3.488 3.488 0 00-1.03-2.47 3.488 3.488 0 00-2.47-1.03zm1.705 5.191a2.36 2.36 0 01-1.688.695 2.393 2.393 0 01-1.696-.706 2.393 2.393 0 01-.707-1.697 2.36 2.36 0 01.695-1.688 2.362 2.362 0 011.681-.695h.007c.64.002 1.242.253 1.697.707a2.396 2.396 0 01.011 3.384zM44 22c0-1.93-1.563-3.502-3.485-3.502S37.03 20.07 37.03 22c0 1.93 1.563 3.502 3.485 3.502S44 23.93 44 22zm-5.87 0a2.396 2.396 0 012.385-2.402A2.396 2.396 0 0142.9 22a2.396 2.396 0 01-2.385 2.402A2.396 2.396 0 0138.13 22zm-3.055 16.585h.01a3.488 3.488 0 002.471-1.029 3.488 3.488 0 001.03-2.47 3.453 3.453 0 00-1.018-2.47 3.411 3.411 0 00-2.47-1.017 3.485 3.485 0 00-2.47 1.029 3.485 3.485 0 00-1.03 2.47 3.452 3.452 0 001.018 2.47 3.453 3.453 0 002.46 1.017zm-1.67-5.18a2.393 2.393 0 011.697-.706h.007c.636 0 1.233.246 1.681.695a2.396 2.396 0 01-.011 3.385 2.396 2.396 0 01-1.697.706h-.007a2.362 2.362 0 01-1.681-.695 2.36 2.36 0 01-.695-1.688 2.39 2.39 0 01.707-1.696zm-14.907 7.11C18.498 42.437 20.07 44 22 44c1.93 0 3.502-1.563 3.502-3.485S23.93 37.03 22 37.03c-1.93 0-3.502 1.563-3.502 3.485zm5.904 0A2.396 2.396 0 0122 42.9a2.396 2.396 0 01-2.402-2.385A2.396 2.396 0 0122 38.13a2.396 2.396 0 012.402 2.385zM8.915 38.586h.01c.93 0 1.803-.362 2.46-1.018a3.453 3.453 0 001.016-2.47 3.485 3.485 0 00-1.029-2.47 3.485 3.485 0 00-2.47-1.03c-.91.01-1.811.36-2.47 1.018a3.453 3.453 0 00-1.017 2.47c.002.932.368 1.81 1.029 2.47a3.488 3.488 0 002.47 1.03zM7.21 33.394a2.361 2.361 0 011.681-.695h.007c.64.001 1.242.253 1.697.707a2.39 2.39 0 01.706 1.696 2.36 2.36 0 01-.695 1.688 2.362 2.362 0 01-1.681.696h-.007a2.395 2.395 0 01-1.696-.707 2.395 2.395 0 01-.012-3.385zm-3.725-7.892c1.922 0 3.485-1.571 3.485-3.502 0-1.93-1.563-3.502-3.485-3.502S0 20.07 0 22c0 1.93 1.563 3.502 3.485 3.502zm0-5.904A2.396 2.396 0 015.87 22a2.396 2.396 0 01-2.385 2.402A2.396 2.396 0 011.1 22a2.396 2.396 0 012.385-2.402zm5.406-7.197h.01a3.485 3.485 0 002.471-1.029 3.485 3.485 0 001.03-2.47 3.453 3.453 0 00-1.018-2.47 3.453 3.453 0 00-2.459-1.017h-.01a3.488 3.488 0 00-2.471 1.029 3.488 3.488 0 00-1.03 2.47 3.453 3.453 0 001.018 2.47 3.453 3.453 0 002.46 1.017zm-1.67-5.18a2.395 2.395 0 011.697-.706h.007c.636 0 1.233.246 1.681.695.45.45.697 1.05.695 1.688a2.393 2.393 0 01-.706 1.697 2.393 2.393 0 01-1.697.706h-.007a2.361 2.361 0 01-1.681-.695 2.395 2.395 0 01.012-3.385zm5.773-.851c.09 0 .182-.022.267-.07a17.887 17.887 0 013.606-1.521.55.55 0 10-.314-1.054 18.937 18.937 0 00-3.828 1.615.55.55 0 00.269 1.03zm17.505-.197a.55.55 0 00.524-.967 19.003 19.003 0 00-3.849-1.565.551.551 0 00-.3 1.058c1.258.357 2.477.853 3.625 1.474zm7.344 6.271a.55.55 0 00-.212.748 17.88 17.88 0 011.521 3.606.55.55 0 001.055-.314 18.98 18.98 0 00-1.615-3.828.55.55 0 00-.749-.212zm.883 18.51a19 19 0 001.564-3.849.55.55 0 10-1.058-.3 17.911 17.911 0 01-1.474 3.625.55.55 0 00.968.524zm-7.987 6.608a17.88 17.88 0 01-3.606 1.522.55.55 0 00.314 1.054 19.051 19.051 0 003.828-1.615.55.55 0 10-.536-.96zm-17.238.128a.55.55 0 00-.523.967 19 19 0 003.848 1.565.55.55 0 00.3-1.058 17.915 17.915 0 01-3.625-1.474zm-7.344-6.272a.55.55 0 00.212-.748 17.889 17.889 0 01-1.521-3.606.55.55 0 10-1.055.314c.396 1.33.94 2.617 1.615 3.828a.55.55 0 00.749.212zm-.883-18.509a18.997 18.997 0 00-1.564 3.848.55.55 0 101.058.3 17.915 17.915 0 011.474-3.624.55.55 0 00-.968-.524zM22 10.672c-6.246 0-11.328 5.082-11.328 11.328 0 6.246 5.082 11.328 11.328 11.328 3.04 0 5.8-1.21 7.836-3.167a.537.537 0 00.091-.083 11.289 11.289 0 003.4-8.078c0-6.246-5.081-11.328-11.327-11.328zm0 1.1c5.64 0 10.228 4.588 10.228 10.228 0 2.596-.98 4.963-2.58 6.768A8.691 8.691 0 0022 24.218a8.71 8.71 0 00-7.649 4.549A10.174 10.174 0 0111.772 22c0-5.64 4.588-10.228 10.228-10.228zM15.167 29.59A7.608 7.608 0 0122 25.317a7.594 7.594 0 016.833 4.271A10.174 10.174 0 0122 32.228c-2.628 0-5.02-1.005-6.833-2.64z" fill="#103EB4"/><path d="M22 22.55a4.35 4.35 0 004.345-4.345A4.35 4.35 0 0022 13.86a4.35 4.35 0 00-4.345 4.345A4.35 4.35 0 0022 22.55zm0-7.59a3.248 3.248 0 013.245 3.245A3.248 3.248 0 0122 21.45a3.249 3.249 0 01-3.245-3.245A3.249 3.249 0 0122 14.96z" fill="#103EB4"/></symbol></svg>