<svg width="44" height="44" viewBox="0 0 44 44" fill="none" xmlns="http://www.w3.org/2000/svg">
<path d="M25.5017 3.48503C25.5017 1.56326 23.9309 0 22 0C20.0691 0 18.4983 1.56326 18.4983 3.48503C18.4983 5.40681 20.0691 6.97034 22 6.97034C23.9309 6.97034 25.5017 5.40681 25.5017 3.48503ZM19.5983 3.48503C19.5983 2.16992 20.6757 1.1 22 1.1C23.3242 1.1 24.4017 2.16992 24.4017 3.48503C24.4017 4.80042 23.3242 5.87034 22 5.87034C20.6757 5.87034 19.5983 4.80042 19.5983 3.48503Z" fill="#103EB4"/>
<path d="M35.0854 5.41467C35.0819 5.41467 35.0787 5.41467 35.0752 5.41467C34.1452 5.41467 33.2721 5.77588 32.6161 6.43223C31.9573 7.09072 31.5961 7.96782 31.5988 8.90132C31.6012 9.83374 31.9667 10.7114 32.6279 11.3723C33.2888 12.0335 34.1664 12.399 35.0988 12.4014C35.1021 12.4014 35.1056 12.4014 35.1088 12.4014C36.0388 12.4014 36.9119 12.0405 37.5679 11.3841C38.2267 10.7256 38.5882 9.84851 38.5855 8.91475C38.5828 7.98232 38.2173 7.10469 37.5564 6.44377C36.8955 5.78286 36.0178 5.41736 35.0854 5.41467ZM36.7902 10.6064C36.3398 11.0565 35.738 11.3046 35.1018 11.3014C34.4621 11.2998 33.8597 11.0487 33.4056 10.5946C32.9515 10.1404 32.7004 9.53806 32.6988 8.89836C32.6969 8.25974 32.9437 7.66006 33.3938 7.20996C33.8423 6.76147 34.4393 6.51467 35.0755 6.51467C35.0776 6.51467 35.08 6.51467 35.0822 6.51467C35.7222 6.51655 36.3245 6.76765 36.7787 7.22151C37.2325 7.67563 37.4836 8.278 37.4855 8.91797C37.4874 9.55659 37.2403 10.1563 36.7902 10.6064Z" fill="#103EB4"/>
<path d="M44 22C44 20.0691 42.4367 18.4984 40.515 18.4984C38.5932 18.4984 37.0297 20.0691 37.0297 22C37.0297 23.9309 38.5932 25.5017 40.515 25.5017C42.4367 25.5017 44 23.9309 44 22ZM38.1297 22C38.1297 20.6758 39.1996 19.5984 40.515 19.5984C41.8301 19.5984 42.9 20.6758 42.9 22C42.9 23.3243 41.8301 24.4017 40.515 24.4017C39.1996 24.4017 38.1297 23.3243 38.1297 22Z" fill="#103EB4"/>
<path d="M35.0752 38.5854C35.0787 38.5854 35.0819 38.5854 35.0854 38.5854C36.0178 38.5827 36.8955 38.2172 37.5564 37.5563C38.2173 36.8954 38.5828 36.0177 38.5855 35.0853C38.5882 34.1516 38.2267 33.2745 37.5679 32.616C36.9094 31.9575 36.0525 31.5938 35.0988 31.5987C34.1664 31.6011 33.2888 31.9666 32.6279 32.6278C31.9667 33.2887 31.6012 34.1663 31.5988 35.0988C31.5961 36.0322 31.9573 36.9093 32.6161 37.5678C33.2721 38.2242 34.1452 38.5854 35.0752 38.5854ZM33.4056 33.4055C33.8597 32.9514 34.4621 32.7003 35.1018 32.6987C35.1042 32.6987 35.1064 32.6987 35.1088 32.6987C35.7447 32.6987 36.3417 32.9452 36.7902 33.3937C37.2403 33.8438 37.4874 34.4435 37.4855 35.0821C37.4836 35.7221 37.2325 36.3244 36.7787 36.7786C36.3245 37.2324 35.7222 37.4835 35.0822 37.4854C35.08 37.4854 35.0776 37.4854 35.0755 37.4854C34.4393 37.4854 33.8423 37.2386 33.3938 36.7901C32.9437 36.34 32.6969 35.7403 32.6988 35.1017C32.7004 34.462 32.9515 33.8596 33.4056 33.4055Z" fill="#103EB4"/>
<path d="M18.4983 40.515C18.4983 42.4367 20.0691 44 22 44C23.9309 44 25.5017 42.4367 25.5017 40.515C25.5017 38.5932 23.9309 37.0297 22 37.0297C20.0691 37.0297 18.4983 38.5932 18.4983 40.515ZM24.4017 40.515C24.4017 41.8301 23.3242 42.9 22 42.9C20.6757 42.9 19.5983 41.8301 19.5983 40.515C19.5983 39.1996 20.6757 38.1297 22 38.1297C23.3242 38.1297 24.4017 39.1996 24.4017 40.515Z" fill="#103EB4"/>
<path d="M8.91476 38.5855C8.91825 38.5855 8.92147 38.5855 8.92497 38.5855C9.85497 38.5855 10.728 38.2243 11.3841 37.5679C12.0429 36.9094 12.4041 36.0323 12.4014 35.0988C12.399 34.1664 12.0335 33.2888 11.3723 32.6279C10.7114 31.9667 9.83376 31.6012 8.90133 31.5988C7.99174 31.6076 7.09074 31.9575 6.43224 32.616C5.77348 33.2745 5.412 34.1516 5.41469 35.0854C5.41737 36.0178 5.78288 36.8955 6.44379 37.5564C7.1047 38.2173 7.98234 38.5828 8.91476 38.5855ZM7.20998 33.3938C7.65846 32.9453 8.25546 32.6988 8.8914 32.6988C8.89381 32.6988 8.89596 32.6988 8.89838 32.6988C9.53808 32.7004 10.1404 32.9515 10.5946 33.4056C11.0487 33.8597 11.2998 34.4621 11.3014 35.1018C11.3033 35.7404 11.0565 36.3401 10.6064 36.7902C10.1579 37.2387 9.5609 37.4855 8.9247 37.4855C8.92255 37.4855 8.92013 37.4855 8.91798 37.4855C8.27802 37.4836 7.67565 37.2325 7.22152 36.7786C6.76767 36.3245 6.51657 35.7221 6.51469 35.0822C6.51281 34.4436 6.75988 33.8439 7.20998 33.3938Z" fill="#103EB4"/>
<path d="M3.48503 25.5017C5.40681 25.5017 6.97034 23.9309 6.97034 22C6.97034 20.0691 5.40681 18.4984 3.48503 18.4984C1.56326 18.4984 0 20.0691 0 22C0 23.9309 1.56326 25.5017 3.48503 25.5017ZM3.48503 19.5984C4.80042 19.5984 5.87034 20.6758 5.87034 22C5.87034 23.3243 4.80042 24.4017 3.48503 24.4017C2.16992 24.4017 1.1 23.3243 1.1 22C1.1 20.6758 2.16992 19.5984 3.48503 19.5984Z" fill="#103EB4"/>
<path d="M8.8914 12.4014C8.89462 12.4014 8.89811 12.4014 8.90133 12.4014C9.83376 12.399 10.7114 12.0335 11.3723 11.3723C12.0335 10.7114 12.399 9.83374 12.4014 8.90132C12.4041 7.96782 12.0429 7.09072 11.3841 6.43223C10.728 5.77588 9.85497 5.41467 8.92497 5.41467C8.92147 5.41467 8.91825 5.41467 8.91476 5.41467C7.98234 5.41736 7.1047 5.78286 6.44379 6.44377C5.78288 7.10469 5.41737 7.98232 5.41469 8.91475C5.412 9.84851 5.77348 10.7256 6.43224 11.3841C7.08859 12.0405 7.96139 12.4014 8.8914 12.4014ZM7.22152 7.22151C7.67565 6.76765 8.27802 6.51655 8.91798 6.51467C8.92013 6.51467 8.92255 6.51467 8.9247 6.51467C9.5609 6.51467 10.1579 6.76147 10.6064 7.20996C11.0565 7.66006 11.3033 8.25974 11.3014 8.89836C11.2998 9.53806 11.0487 10.1404 10.5946 10.5946C10.1404 11.0487 9.53808 11.2998 8.89838 11.3014C8.89596 11.3014 8.89381 11.3014 8.8914 11.3014C8.25546 11.3014 7.65846 11.0549 7.20998 10.6064C6.75988 10.1563 6.51281 9.55659 6.51469 8.91797C6.51657 8.278 6.76767 7.67563 7.22152 7.22151Z" fill="#103EB4"/>
<path d="M12.9938 6.36984C13.0846 6.36984 13.1764 6.34755 13.2613 6.30001C14.4021 5.66327 15.6154 5.15168 16.8669 4.77892C17.158 4.69218 17.324 4.38603 17.2372 4.09491C17.1505 3.80299 16.8433 3.63864 16.5532 3.72458C15.2241 4.12016 13.9364 4.66371 12.7252 5.33966C12.4599 5.48764 12.3648 5.82252 12.5131 6.08786C12.6138 6.26833 12.801 6.36984 12.9938 6.36984Z" fill="#103EB4"/>
<path d="M30.4987 6.17297C30.5819 6.21809 30.6716 6.23931 30.76 6.23931C30.9555 6.23931 31.1448 6.13511 31.2442 5.95115C31.3887 5.68394 31.2893 5.35012 31.0224 5.20564C29.8042 4.54634 28.5095 4.01997 27.174 3.64077C26.8818 3.55886 26.5778 3.72778 26.4948 4.0197C26.4118 4.31189 26.5816 4.61589 26.8737 4.69888C28.1316 5.05606 29.3514 5.55208 30.4987 6.17297Z" fill="#103EB4"/>
<path d="M37.8434 12.4443C37.5781 12.5923 37.483 12.9271 37.6312 13.1925C38.268 14.3333 38.7796 15.5466 39.1523 16.7981C39.2235 17.0371 39.4424 17.1915 39.6792 17.1915C39.7313 17.1915 39.784 17.184 39.8363 17.1684C40.1275 17.0817 40.2934 16.7755 40.2067 16.4844C39.8111 15.1553 39.2675 13.8676 38.5916 12.6564C38.4436 12.3908 38.1082 12.296 37.8434 12.4443Z" fill="#103EB4"/>
<path d="M38.7256 30.9537C39.3849 29.7352 39.9115 28.4405 40.2904 27.1053C40.3734 26.8131 40.2037 26.5091 39.9115 26.4261C39.6199 26.3434 39.3156 26.5131 39.2323 26.805C38.8752 28.0627 38.3791 29.2824 37.7582 30.43C37.6138 30.6972 37.7131 31.031 37.9801 31.1755C38.0633 31.2206 38.153 31.2418 38.2414 31.2418C38.4369 31.2418 38.6262 31.1376 38.7256 30.9537Z" fill="#103EB4"/>
<path d="M30.7387 37.5624C29.5979 38.1992 28.3846 38.7108 27.1331 39.0835C26.842 39.1703 26.676 39.4764 26.7628 39.7676C26.8339 40.0066 27.0528 40.161 27.2897 40.161C27.3418 40.161 27.3944 40.1535 27.4468 40.1379C28.7759 39.7423 30.0636 39.1988 31.2748 38.5228C31.5401 38.3748 31.6352 38.0399 31.4869 37.7746C31.3387 37.509 31.0041 37.4142 30.7387 37.5624Z" fill="#103EB4"/>
<path d="M13.5013 37.6895C13.2344 37.5453 12.9005 37.6444 12.7558 37.9113C12.6113 38.1786 12.7107 38.5124 12.9776 38.6568C14.1961 39.3161 15.4908 39.8428 16.826 40.2217C16.8762 40.2359 16.9267 40.2429 16.9764 40.2429C17.2162 40.2429 17.4364 40.0848 17.5052 39.8428C17.5882 39.5506 17.4184 39.2466 17.1263 39.1636C15.8686 38.8064 14.6488 38.3104 13.5013 37.6895Z" fill="#103EB4"/>
<path d="M6.15657 31.4182C6.4219 31.2702 6.51697 30.9353 6.36872 30.67C5.73198 29.5292 5.22039 28.3158 4.84763 27.0644C4.76062 26.7727 4.45339 26.6068 4.16362 26.694C3.87251 26.7808 3.70654 27.0869 3.79329 27.378C4.18887 28.7071 4.73242 29.9948 5.40837 31.206C5.50908 31.3865 5.69626 31.488 5.88909 31.488C5.97986 31.488 6.0717 31.4657 6.15657 31.4182Z" fill="#103EB4"/>
<path d="M5.2744 12.9089C4.6151 14.1273 4.08846 15.422 3.70953 16.7573C3.62655 17.0495 3.79627 17.3535 4.08846 17.4365C4.13868 17.4507 4.18917 17.4577 4.23885 17.4577C4.47867 17.4577 4.69889 17.2995 4.76764 17.0575C5.12481 15.7999 5.62083 14.5801 6.24173 13.4326C6.38621 13.1654 6.28685 12.8315 6.01991 12.6871C5.75296 12.542 5.41861 12.6419 5.2744 12.9089Z" fill="#103EB4"/>
<path d="M22 10.6724C15.754 10.6724 10.6724 15.754 10.6724 22C10.6724 28.246 15.754 33.3276 22 33.3276C25.0406 33.3276 27.7993 32.1172 29.8361 30.1606C29.8695 30.1349 29.901 30.1097 29.9272 30.0778C32.0228 28.021 33.3276 25.1613 33.3276 22C33.3276 15.754 28.246 10.6724 22 10.6724ZM22 11.7724C27.6396 11.7724 32.2276 16.3604 32.2276 22C32.2276 24.5965 31.2472 26.9627 29.6473 28.7682C28.1339 25.9804 25.2182 24.2172 22 24.2172C18.7914 24.2172 15.8658 25.9818 14.3515 28.7669C12.7524 26.9615 11.7724 24.5958 11.7724 22C11.7724 16.3604 16.3604 11.7724 22 11.7724ZM15.1674 29.5887C16.4394 26.9854 19.0852 25.3172 22 25.3172C24.9234 25.3172 27.5612 26.9823 28.8332 29.5882C27.0198 31.2229 24.628 32.2276 22 32.2276C19.3723 32.2276 16.9808 31.223 15.1674 29.5887Z" fill="#103EB4"/>
<path d="M22 22.55C24.3958 22.55 26.3449 20.6008 26.3449 18.2051C26.3449 15.8093 24.3958 13.8601 22 13.8601C19.6042 13.8601 17.655 15.8093 17.655 18.2051C17.655 20.6008 19.6042 22.55 22 22.55ZM22 14.9601C23.7894 14.9601 25.2449 16.4157 25.2449 18.2051C25.2449 19.9944 23.7894 21.45 22 21.45C20.2106 21.45 18.755 19.9944 18.755 18.2051C18.755 16.4157 20.2106 14.9601 22 14.9601Z" fill="#103EB4"/>
</svg>
